<svg width="360" height="44" viewBox="0 0 360 44" fill="none" xmlns="http://www.w3.org/2000/svg">

  <!-- Symbol -->
  <svg x="0" y="6" width="32" height="32" viewBox="0 0 34 34" fill="none">

    <!-- Octagon ring connecting lines -->
    <line x1="17.0" y1="2.0"  x2="22.3"  y2="4.2"   stroke="#0A0A0A" stroke-width="0.6" opacity="0.35"/>
    <line x1="22.3"  y1="4.2"  x2="27.61" y2="6.39"  stroke="#0A0A0A" stroke-width="0.6" opacity="0.35"/>
    <line x1="27.61" y1="6.39" x2="29.8"  y2="11.7"  stroke="#0A0A0A" stroke-width="0.6" opacity="0.35"/>
    <line x1="29.8"  y1="11.7" x2="32.0"  y2="17.0"  stroke="#0A0A0A" stroke-width="0.6" opacity="0.35"/>
    <line x1="32.0"  y1="17.0" x2="29.8"  y2="22.3"  stroke="#0A0A0A" stroke-width="0.6" opacity="0.35"/>
    <line x1="29.8"  y1="22.3" x2="27.61" y2="27.61" stroke="#0A0A0A" stroke-width="0.6" opacity="0.35"/>
    <line x1="27.61" y1="27.61" x2="22.3" y2="29.8"  stroke="#0A0A0A" stroke-width="0.6" opacity="0.35"/>
    <line x1="22.3"  y1="29.8" x2="17.0"  y2="32.0"  stroke="#0A0A0A" stroke-width="0.6" opacity="0.35"/>
    <line x1="17.0"  y1="32.0" x2="11.7"  y2="29.8"  stroke="#0A0A0A" stroke-width="0.6" opacity="0.35"/>
    <line x1="11.7"  y1="29.8" x2="6.39"  y2="27.61" stroke="#0A0A0A" stroke-width="0.6" opacity="0.35"/>
    <line x1="6.39"  y1="27.61" x2="4.2"  y2="22.3"  stroke="#0A0A0A" stroke-width="0.6" opacity="0.35"/>
    <line x1="4.2"   y1="22.3" x2="2.0"   y2="17.0"  stroke="#0A0A0A" stroke-width="0.6" opacity="0.35"/>
    <line x1="2.0"   y1="17.0" x2="4.2"   y2="11.7"  stroke="#0A0A0A" stroke-width="0.6" opacity="0.35"/>
    <line x1="4.2"   y1="11.7" x2="6.39"  y2="6.39"  stroke="#0A0A0A" stroke-width="0.6" opacity="0.35"/>
    <line x1="6.39"  y1="6.39" x2="11.7"  y2="4.2"   stroke="#0A0A0A" stroke-width="0.6" opacity="0.35"/>
    <line x1="11.7"  y1="4.2"  x2="17.0"  y2="2.0"   stroke="#0A0A0A" stroke-width="0.6" opacity="0.35"/>

    <!-- Corner nodes -->
    <polygon points="18.57,2.65 17.65,3.57 16.35,3.57 15.43,2.65 15.43,1.35 16.35,0.43 17.65,0.43 18.57,1.35" fill="#0A0A0A"/>
    <polygon points="29.18,7.04 28.26,7.96 26.96,7.96 26.04,7.04 26.04,5.74 26.96,4.82 28.26,4.82 29.18,5.74" fill="#0A0A0A"/>
    <polygon points="33.57,17.65 32.65,18.57 31.35,18.57 30.43,17.65 30.43,16.35 31.35,15.43 32.65,15.43 33.57,16.35" fill="#0A0A0A"/>
    <polygon points="29.18,28.26 28.26,29.18 26.96,29.18 26.04,28.26 26.04,26.96 26.96,26.04 28.26,26.04 29.18,26.96" fill="#0A0A0A"/>
    <polygon points="18.57,32.65 17.65,33.57 16.35,33.57 15.43,32.65 15.43,31.35 16.35,30.43 17.65,30.43 18.57,31.35" fill="#0A0A0A"/>
    <polygon points="7.96,28.26 7.04,29.18 5.74,29.18 4.82,28.26 4.82,26.96 5.74,26.04 7.04,26.04 7.96,26.96" fill="#0A0A0A"/>
    <polygon points="3.57,17.65 2.65,18.57 1.35,18.57 0.43,17.65 0.43,16.35 1.35,15.43 2.65,15.43 3.57,16.35" fill="#0A0A0A"/>
    <polygon points="7.96,7.04 7.04,7.96 5.74,7.96 4.82,7.04 4.82,5.74 5.74,4.82 7.04,4.82 7.96,5.74" fill="#0A0A0A"/>

    <!-- Edge midpoint nodes -->
    <polygon points="23.5,4.7 22.8,5.4 21.8,5.4 21.1,4.7 21.1,3.7 21.8,3.0 22.8,3.0 23.5,3.7" fill="#0A0A0A" opacity="0.4"/>
    <polygon points="31.0,12.2 30.3,12.9 29.3,12.9 28.6,12.2 28.6,11.2 29.3,10.5 30.3,10.5 31.0,11.2" fill="#0A0A0A" opacity="0.4"/>
    <polygon points="31.0,22.8 30.3,23.5 29.3,23.5 28.6,22.8 28.6,21.8 29.3,21.1 30.3,21.1 31.0,21.8" fill="#0A0A0A" opacity="0.4"/>
    <polygon points="23.5,30.3 22.8,31.0 21.8,31.0 21.1,30.3 21.1,29.3 21.8,28.6 22.8,28.6 23.5,29.3" fill="#0A0A0A" opacity="0.4"/>
    <polygon points="12.9,30.3 12.2,31.0 11.2,31.0 10.5,30.3 10.5,29.3 11.2,28.6 12.2,28.6 12.9,29.3" fill="#0A0A0A" opacity="0.4"/>
    <polygon points="5.4,22.8 4.7,23.5 3.7,23.5 3.0,22.8 3.0,21.8 3.7,21.1 4.7,21.1 5.4,21.8" fill="#0A0A0A" opacity="0.4"/>
    <polygon points="5.4,12.2 4.7,12.9 3.7,12.9 3.0,12.2 3.0,11.2 3.7,10.5 4.7,10.5 5.4,11.2" fill="#0A0A0A" opacity="0.4"/>
    <polygon points="12.9,4.7 12.2,5.4 11.2,5.4 10.5,4.7 10.5,3.7 11.2,3.0 12.2,3.0 12.9,3.7" fill="#0A0A0A" opacity="0.4"/>

    <!-- Inner hexagon -->
    <polygon points="17.0,10.0 23.06,13.5 23.06,20.5 17.0,24.0 10.94,20.5 10.94,13.5" stroke="#0A0A0A" stroke-width="1.2" fill="none"/>

    <!-- Checkmark -->
    <polyline points="12,17 15.5,20.5 22,13.5" stroke="#0A0A0A" stroke-width="2.0" stroke-linecap="square" stroke-linejoin="miter"/>

  </svg>

  <!-- Wordmark -->
  <text
    x="50"
    y="30"
    font-family="Inter, 'IBM Plex Sans', ui-sans-serif, system-ui, sans-serif"
    font-weight="700"
    font-size="22"
    fill="#0A0A0A"
    letter-spacing="1.5"
  >TrapRoyaltiesPro</text>

</svg>
